<?xml version="1.0" encoding="UTF-8"?>
<svg id="Layer_2" data-name="Layer 2" xmlns="http://www.w3.org/2000/svg" viewBox="0 0 1056.41 298">
  <defs>
    <style>
      .cls-1 {
        fill: #fff;
      }
    </style>
  </defs>
  <g id="Layer_1-2" data-name="Layer 1">
    <path class="cls-1" d="m1026.4,60.01H30C13.43,60.01,0,46.58,0,30.01S13.43,0,30,0h996.4c16.57,0,30,13.43,30,30s-13.43,30-30,30Z"/>
    <path class="cls-1" d="m411.01,298c-12.03,0-23.39-7.29-27.99-19.19-5.98-15.45,1.71-32.83,17.16-38.8L1015.58,2.03c15.45-5.98,32.83,1.71,38.8,17.16,5.98,15.45-1.71,32.83-17.16,38.8l-615.4,237.98c-3.56,1.38-7.22,2.03-10.81,2.03Z"/>
  </g>
</svg>