<?xml version="1.0" encoding="UTF-8"?>
<svg id="Layer_2" data-name="Layer 2" xmlns="http://www.w3.org/2000/svg" viewBox="0 0 1056.41 298">
  <defs>
    <style>
      .cls-1 {
        fill: #fff;
      }
    </style>
  </defs>
  <g id="Layer_1-2" data-name="Layer 1">
    <path class="cls-1" d="m30.01,237.99h996.4c16.57,0,30,13.43,30,30s-13.43,30-30,30H30.01c-16.57,0-30-13.43-30-30s13.43-30,30-30Z"/>
    <path class="cls-1" d="m645.4,0c12.03,0,23.39,7.29,27.99,19.19,5.98,15.45-1.71,32.83-17.16,38.8L40.83,295.97c-15.45,5.98-32.83-1.71-38.8-17.16-5.98-15.45,1.71-32.83,17.16-38.8L634.59,2.03C638.14.65,641.8,0,645.4,0Z"/>
  </g>
</svg>